<svg width="206" height="64" viewBox="0 0 206 64" fill="none" xmlns="http://www.w3.org/2000/svg">
<path fill-rule="evenodd" clip-rule="evenodd" d="M163.053 61.5065C163.08 60.7745 163.093 60.0389 163.093 59.3002C163.093 26.8875 136.73 0.611816 104.21 0.611816C71.6893 0.611816 45.3262 26.8875 45.3262 59.3002C45.3262 60.0389 45.3399 60.7745 45.367 61.5065C46.5311 30.1162 72.4304 5.02448 104.21 5.02448C135.989 5.02448 161.888 30.1162 163.053 61.5065Z" fill="white"/>
<path fill-rule="evenodd" clip-rule="evenodd" d="M163.053 63.5065C163.08 62.7745 163.093 62.0389 163.093 61.3002C163.093 28.8875 136.73 2.61182 104.21 2.61182C71.6893 2.61182 45.3262 28.8875 45.3262 61.3002C45.3262 62.0389 45.3399 62.7745 45.367 63.5065C46.5311 32.1162 72.4304 7.02448 104.21 7.02448C135.989 7.02448 161.888 32.1162 163.053 63.5065Z" fill="#0C0B11"/>
<path d="M37.0973 47.4688V56H35.3453V47.4688H37.0973ZM58.2871 47.4688V56H56.5293L53.1016 50.2812V56H51.3438V47.4688H53.1016L56.5352 53.1934V47.4688H58.2871ZM74.1742 47.4688V56H72.4164V47.4688H74.1742ZM77.5727 51.1133V52.4844H73.6938V51.1133H77.5727ZM77.9828 47.4688V48.8457H73.6938V47.4688H77.9828ZM93.4715 47.4688V56H91.7195V47.4688H93.4715ZM114.661 47.4688V56H112.904L109.476 50.2812V56H107.718V47.4688H109.476L112.909 53.1934V47.4688H114.661ZM130.66 47.4688V56H128.908V47.4688H130.66ZM148.545 47.4688V56H146.793V47.4688H148.545ZM151.17 47.4688V48.8457H144.209V47.4688H151.17ZM166.038 47.4688L167.819 51.3594L169.6 47.4688H171.516L168.709 52.8945V56H166.928V52.8945L164.116 47.4688H166.038Z" fill="white"/>
</svg>
